<svg width="136" height="101" viewBox="0 0 136 101" fill="none" xmlns="http://www.w3.org/2000/svg">
<path d="M3.03509 57.8246H35.3596L47.7018 33.7281L52.4035 70.1667L65.921 48.4211L74.7368 90.7369L100.596 7.28076L113.526 30.7895" stroke="white" stroke-width="5" stroke-linecap="round"/>
<path fill-rule="evenodd" clip-rule="evenodd" d="M116.872 46.4468C119.247 43.9792 120.911 41.8456 124.57 41.4289C131.441 40.6428 137.76 47.6525 134.29 54.5528C133.303 56.5179 131.292 58.8555 129.068 61.1487C126.628 63.6665 123.927 66.134 122.035 68.0046L116.875 73.1052L112.611 69.0153C107.481 64.092 99.1154 57.8951 98.8396 50.2175C98.6469 44.8392 102.905 41.3934 107.804 41.4555C112.181 41.5146 114.022 43.6837 116.872 46.4468Z" fill="white"/>
</svg>
