<svg width="27" height="27" viewBox="0 0 27 27" fill="none" xmlns="http://www.w3.org/2000/svg">
<path d="M18.6196 9.00879C19.2107 9.64819 19.1733 10.6479 18.5339 11.239C17.8945 11.8301 16.8948 11.7927 16.3037 11.1533C15.55 10.3381 14.5964 9.9646 13.667 9.95801C13.2166 9.95581 12.7617 10.0415 12.3311 10.2063C11.9048 10.3689 11.5181 10.604 11.1951 10.9028C10.5425 11.5071 10.1096 12.3948 10.103 13.5044C10.0964 14.592 10.4722 15.4314 11.0566 15.9983C11.3599 16.2927 11.7246 16.519 12.1289 16.6772C12.5486 16.8398 12.9968 16.9255 13.4473 16.9299C14.4602 16.9365 15.5127 16.5432 16.3301 15.7017C16.9387 15.0754 17.9407 15.0623 18.5669 15.6709C19.1931 16.2795 19.2063 17.2815 18.5977 17.9077C17.1475 19.4041 15.26 20.1006 13.4363 20.0896C12.5815 20.0852 11.7466 19.927 10.9775 19.6282C10.1931 19.3228 9.46802 18.8657 8.85278 18.2681C7.68384 17.1343 6.93237 15.5215 6.94556 13.4956C6.95874 11.4368 7.7915 9.75806 9.05493 8.59131C9.68994 8.00244 10.4238 7.54981 11.2061 7.25098C11.9817 6.95215 12.8232 6.79834 13.6824 6.80493C15.4358 6.80933 17.2244 7.49927 18.6196 9.00879ZM13.5 0C17.2288 0 20.6038 1.51172 23.0449 3.95508C25.4883 6.39844 27 9.77344 27 13.5C27 17.2288 25.4883 20.6038 23.0449 23.0449C20.6016 25.4883 17.2266 27 13.5 27C9.77124 27 6.39624 25.4883 3.95508 23.0449C1.51172 20.6016 0 17.2288 0 13.5C0 9.77124 1.51172 6.39624 3.95508 3.95508C6.39624 1.51172 9.77124 0 13.5 0ZM20.7927 6.20728C18.9272 4.3396 16.3477 3.18604 13.5 3.18604C10.6523 3.18604 8.07275 4.3396 6.20728 6.20728C4.3418 8.07495 3.18604 10.6523 3.18604 13.5C3.18604 16.3477 4.3396 18.9272 6.20728 20.7927C8.07495 22.6582 10.6523 23.814 13.5 23.814C16.3477 23.814 18.9272 22.6604 20.7927 20.7927C22.6582 18.9272 23.814 16.3477 23.814 13.5C23.814 10.6523 22.6604 8.07275 20.7927 6.20728Z" fill="#322262"/>
</svg>
