<svg width="142" height="44" viewBox="0 0 142 44" fill="none" xmlns="http://www.w3.org/2000/svg">
<path d="M21.6739 44C33.644 44 43.3477 34.2963 43.3477 22.3261C43.3477 10.356 33.644 0.65226 21.6739 0.65226C9.70372 0.65226 0 10.356 0 22.3261C0 34.2963 9.70372 44 21.6739 44Z" fill="#2AAAAB"/>
<path d="M35.4874 12.7174C35.5704 12.6885 36.3977 15.9721 35.4874 25.3388C35.3537 26.7187 34.3495 27.9866 32.7312 28.7199C31.4307 29.3087 31.0478 29.2654 29.3464 29.9301C28.5878 30.2263 26.9768 31.1655 26.1062 33.0258C25.4235 34.4888 25.5318 35.9048 25.6727 36.6995C24.9719 36.0999 23.8629 34.962 23.303 33.2173C22.3024 30.1107 23.3319 26.4514 25.4776 24.8042C26.2796 24.1865 27.7642 23.4496 29.0069 22.9655C29.8991 22.6187 30.3434 22.532 30.99 22.1419C32.1965 21.4158 32.9009 20.3647 33.3091 19.5808C33.4356 21.6868 32.8937 22.6115 32.341 23.0631C31.8895 23.4315 29.5234 24.9812 29.8269 25.4797C30.1014 25.9348 30.7625 25.7542 31.279 25.4797C32.435 24.8692 33.2297 23.93 33.5656 22.803C34.3061 20.3177 34.0388 13.2376 35.4874 12.7174Z" fill="#C6F4F5"/>
<path d="M7.86042 12.7174C7.77734 12.6885 6.95012 15.9721 7.86042 25.3388C7.99408 26.7187 8.9983 27.9866 10.6166 28.7199C11.917 29.3087 12.3 29.2654 14.0013 29.9301C14.7599 30.2263 16.371 31.1655 17.2416 33.0258C17.9243 34.4888 17.816 35.9048 17.6751 36.6995C18.3759 36.0999 19.4848 34.962 20.0447 33.2173C21.0454 30.1107 20.0158 26.4514 17.8701 24.8042C17.0682 24.1865 15.5835 23.4496 14.3409 22.9655C13.4487 22.6187 13.0044 22.532 12.3577 22.1419C11.1512 21.4158 10.4468 20.3647 10.0386 19.5808C9.91221 21.6868 10.4541 22.6115 11.0067 23.0631C11.4583 23.4315 13.8243 24.9812 13.5209 25.4797C13.2464 25.9348 12.5853 25.7542 12.0688 25.4797C10.9128 24.8692 10.1181 23.93 9.78217 22.803C9.04165 20.3177 9.30896 13.2376 7.86042 12.7174Z" fill="#C6F4F5"/>
<path d="M23.6895 14.6969C23.238 14.2996 22.7973 13.9095 22.3385 13.5085C23.1766 12.8438 23.8702 12.0202 24.9141 11.659C27.0309 10.9293 29.3753 12.1286 29.9497 14.249C30.5746 16.5681 29.0647 18.8005 26.6769 19.0823C25.4812 19.2232 24.4337 18.8728 23.5342 18.0817C21.9267 16.6729 20.312 15.2713 18.7082 13.8589C18.318 13.5157 17.8809 13.2809 17.3572 13.2195C16.4324 13.1147 15.1175 13.7072 15.0344 15.0871C14.9803 15.9757 15.3018 16.6729 16.1073 17.0811C16.9417 17.5037 17.7617 17.4315 18.5095 16.8535C18.8996 16.5501 19.2645 16.2105 19.6546 15.8782C20.0989 16.2647 20.5432 16.6476 21.002 17.0449C20.5577 17.4315 20.1242 17.8108 19.6871 18.1828C19.185 18.6091 18.6106 18.8872 17.9676 19.0281C15.952 19.4688 13.8857 18.2623 13.3945 16.308C12.672 13.4435 14.9008 11.2833 17.4439 11.4531C18.3469 11.5145 19.1308 11.8793 19.8135 12.4754C21.4318 13.895 23.0574 15.311 24.6793 16.7307C25.1128 17.11 25.6041 17.352 26.182 17.3412C27.9774 17.305 28.7179 15.7445 28.1363 14.3754C27.8184 13.6313 26.9226 13.1509 26.0809 13.2195C25.5499 13.2629 25.0911 13.4579 24.6938 13.8119C24.3687 14.1045 24.0363 14.3899 23.6968 14.6897L23.6895 14.6969Z" fill="#C6F4F5"/>
<path d="M51.9487 5.77453C51.9487 4.19956 53.0143 3.25314 54.6796 3.25314C55.4454 3.25314 56.1895 3.4482 56.9553 3.74802V5.33383C55.9656 4.92925 55.3045 4.7089 54.694 4.7089C53.8993 4.7089 53.4984 5.08458 53.4984 5.69867C53.4984 6.31276 53.8885 6.56924 54.5134 6.91963L55.5935 7.49038C56.6086 8.03584 57.2696 8.77636 57.2696 10.0768C57.2696 11.6626 56.2148 12.6126 54.5531 12.6126C53.7729 12.6126 52.9926 12.4031 52.2124 12.1177V10.5067C53.2383 10.9112 53.9138 11.1424 54.5387 11.1424C55.319 11.1424 55.7235 10.727 55.7235 10.0876C55.7235 9.44825 55.3587 9.12675 54.7229 8.76191L53.632 8.19117C52.6422 7.65654 51.9559 6.98104 51.9559 5.77092L51.9487 5.77453Z" fill="#2AAAAB"/>
<path d="M61.5972 6.37417C60.5063 6.37417 59.9716 7.15443 59.9716 8.23451V12.4862H58.4364V2.73296H59.9716V6.48977C60.3618 5.52889 61.1818 5.04484 62.1571 5.04484C63.537 5.04484 64.6532 5.98043 64.6532 7.90579V12.4826H63.118V8.08641C63.118 7.06051 62.6231 6.37056 61.5972 6.37056V6.37417Z" fill="#2AAAAB"/>
<path d="M67.5503 8.53071L69.8766 7.7649C69.7971 6.84015 69.3311 6.46447 68.3703 6.46447C67.7598 6.46447 67.0698 6.60896 66.0945 6.95936V5.48914C66.9398 5.22906 67.7598 5.04844 68.5509 5.04844C70.5665 5.04844 71.4263 6.28385 71.4263 8.06472V12.4862H69.9308V11.4856C69.5154 12.2008 68.7604 12.6415 67.8248 12.6415C66.4991 12.6415 65.7188 11.7818 65.7188 10.6764C65.7188 9.65053 66.3943 8.90639 67.5539 8.53071H67.5503ZM68.3594 11.4567C69.1541 11.4567 69.8946 10.8462 69.8946 9.94674V8.94613L68.2041 9.49159C67.5936 9.68665 67.2685 10.037 67.2685 10.5066C67.2685 11.0413 67.6984 11.4567 68.3594 11.4567Z" fill="#2AAAAB"/>
<path d="M72.7809 2.73296H74.3161V12.4862H72.7809V2.73296Z" fill="#2AAAAB"/>
<path d="M77.3035 8.53071L79.6298 7.7649C79.5503 6.84015 79.0844 6.46447 78.1235 6.46447C77.513 6.46447 76.8231 6.60896 75.8477 6.95936V5.48914C76.693 5.22906 77.513 5.04844 78.3041 5.04844C80.3198 5.04844 81.1795 6.28385 81.1795 8.06472V12.4862H79.684V11.4856C79.2686 12.2008 78.5136 12.6415 77.578 12.6415C76.2523 12.6415 75.472 11.7818 75.472 10.6764C75.472 9.65053 76.1475 8.90639 77.3071 8.53071H77.3035ZM78.1127 11.4567C78.9074 11.4567 79.6479 10.8462 79.6479 9.94674V8.94613L77.9573 9.49159C77.3468 9.68665 77.0217 10.037 77.0217 10.5066C77.0217 11.0413 77.4516 11.4567 78.1127 11.4567Z" fill="#2AAAAB"/>
<path d="M86.1356 6.48977C84.6148 6.48977 83.7298 7.47955 83.7298 8.84139C83.7298 10.2032 84.6148 11.1966 86.1356 11.1966C86.7858 11.1966 87.3566 11.016 87.9418 10.8462V12.3273C87.3168 12.5368 86.7063 12.6379 86.1067 12.6379C83.7912 12.6379 82.1801 11.063 82.1801 8.84139C82.1801 6.61982 83.7912 5.04485 86.1067 5.04485C86.7063 5.04485 87.3168 5.14961 87.9418 5.35551V6.83656C87.3566 6.65594 86.7714 6.48616 86.1356 6.48616V6.48977Z" fill="#2AAAAB"/>
<path d="M92.2729 6.37417C91.182 6.37417 90.6474 7.15443 90.6474 8.23451V12.4862H89.1121V2.73296H90.6474V6.48977C91.0375 5.52889 91.8575 5.04484 92.8328 5.04484C94.2127 5.04484 95.3289 5.98043 95.3289 7.90579V12.4826H93.7937V8.08641C93.7937 7.06051 93.2988 6.37056 92.2729 6.37056V6.37417Z" fill="#2AAAAB"/>
<path d="M57.0818 19.2737H53.6898V21.6145H56.9011V22.9944H53.6898V25.4905H57.0818V26.9354H52.1401V17.8324H57.0818V19.2773V19.2737Z" fill="#2AAAAB"/>
<path d="M59.8271 19.653V20.9932C60.192 19.9926 60.9975 19.4977 61.9729 19.4977C62.9482 19.4977 63.844 20.0323 64.2089 21.0979C64.5846 20.0323 65.484 19.4977 66.4846 19.4977C67.8248 19.4977 68.941 20.4333 68.941 22.3586V26.9354H67.4058V22.5393C67.4058 21.5134 66.9362 20.8234 65.95 20.8234C64.8952 20.8234 64.4039 21.6037 64.4039 22.6837V26.9354H62.8687V22.5393C62.8687 21.5134 62.3991 20.8234 61.4129 20.8234C60.3582 20.8234 59.8524 21.6037 59.8524 22.6837V26.9354H58.3172V19.653H59.8235H59.8271Z" fill="#2AAAAB"/>
<path d="M70.2306 19.653H71.7261V20.9787C72.286 20.0034 73.2216 19.4977 74.3414 19.4977C76.2523 19.4977 77.7731 20.9932 77.7731 23.2942C77.7731 25.5953 76.2523 27.0908 74.3414 27.0908C73.1963 27.0908 72.2752 26.5453 71.7658 25.505V29.4063H70.2306V19.653ZM74.0018 25.6856C75.407 25.6856 76.227 24.6055 76.227 23.2942C76.227 21.983 75.407 20.9029 74.0018 20.9029C72.5967 20.9029 71.7261 21.983 71.7261 23.2942C71.7261 24.6055 72.5858 25.6856 74.0018 25.6856Z" fill="#2AAAAB"/>
<path d="M86.0706 23.2906C86.0706 25.4363 84.51 27.0872 82.2885 27.0872C80.0669 27.0872 78.5064 25.4363 78.5064 23.2906C78.5064 21.1449 80.0813 19.4941 82.2885 19.4941C84.4956 19.4941 86.0706 21.1449 86.0706 23.2906ZM82.2849 25.6603C83.6648 25.6603 84.5209 24.6344 84.5209 23.2942C84.5209 21.9541 83.6611 20.9282 82.2849 20.9282C80.9086 20.9282 80.0488 21.9541 80.0488 23.2942C80.0488 24.6344 80.9194 25.6603 82.2849 25.6603Z" fill="#2AAAAB"/>
<path d="M86.3415 19.653H87.9418L89.5529 25.8951L91.1387 19.653H93.1146L94.7654 25.8806L96.3512 19.653H97.9117L95.8961 26.9354H93.5047L92.0598 21.3833L90.6149 26.9354H88.3536L86.3379 19.653H86.3415Z" fill="#2AAAAB"/>
<path d="M98.1249 23.2906C98.1249 21.1305 99.5409 19.4941 101.726 19.4941C103.912 19.4941 105.118 21.1341 105.118 23.0305C105.118 23.3412 105.093 23.6302 105.053 23.8758H99.7215C99.8371 24.8512 100.646 25.7109 102.178 25.7109C102.958 25.7109 103.753 25.4761 104.558 25.0101V26.5056C103.728 26.9102 102.868 27.0908 102.062 27.0908C99.6167 27.0908 98.1212 25.4905 98.1212 23.2942L98.1249 23.2906ZM103.572 22.7199C103.507 21.6398 102.922 20.8343 101.701 20.8343C100.48 20.8343 99.8046 21.694 99.7251 22.7199H103.572Z" fill="#2AAAAB"/>
<path d="M107.643 19.653V21.3183C108.048 20.1985 108.879 19.5483 110.219 19.5483V21.1594C110.038 21.1341 109.843 21.1196 109.673 21.1196C108.373 21.1196 107.672 21.8999 107.672 23.446V26.9318H106.137V19.6494H107.647L107.643 19.653Z" fill="#2AAAAB"/>
<path d="M112.444 19.653V20.9932C112.809 19.9926 113.614 19.4977 114.59 19.4977C115.565 19.4977 116.461 20.0323 116.826 21.0979C117.201 20.0323 118.101 19.4977 119.102 19.4977C120.442 19.4977 121.558 20.4333 121.558 22.3586V26.9354H120.023V22.5393C120.023 21.5134 119.553 20.8234 118.567 20.8234C117.512 20.8234 117.021 21.6037 117.021 22.6837V26.9354H115.486V22.5393C115.486 21.5134 115.016 20.8234 114.03 20.8234C112.975 20.8234 112.469 21.6037 112.469 22.6837V26.9354H110.934V19.653H112.444Z" fill="#2AAAAB"/>
<path d="M122.559 23.2906C122.559 21.1305 123.975 19.4941 126.16 19.4941C128.345 19.4941 129.552 21.1341 129.552 23.0305C129.552 23.3412 129.527 23.6302 129.487 23.8758H124.155C124.271 24.8512 125.08 25.7109 126.612 25.7109C127.392 25.7109 128.187 25.4761 128.992 25.0101V26.5056C128.161 26.9102 127.301 27.0908 126.496 27.0908C124.05 27.0908 122.555 25.4905 122.555 23.2942L122.559 23.2906ZM128.006 22.7199C127.941 21.6398 127.356 20.8343 126.135 20.8343C124.914 20.8343 124.238 21.694 124.159 22.7199H128.006Z" fill="#2AAAAB"/>
<path d="M132.077 19.653V21.004C132.453 19.989 133.287 19.4941 134.288 19.4941C135.668 19.4941 136.784 20.4297 136.784 22.355V26.9318H135.249V22.5357C135.249 21.5098 134.754 20.8198 133.728 20.8198C132.637 20.8198 132.102 21.6001 132.102 22.6802V26.9318H130.567V19.6494H132.077V19.653Z" fill="#2AAAAB"/>
<path d="M138.659 24.815V21.0329H137.553V19.653H138.659V18.237L140.194 17.8071V19.653H142V21.0329H140.194V24.6091C140.194 25.3894 140.429 25.5844 141.079 25.5844C141.39 25.5844 141.704 25.5447 141.989 25.4797V26.8957C141.599 26.9607 141.209 27.0113 140.793 27.0113C139.247 27.0113 138.662 26.2816 138.662 24.815H138.659Z" fill="#2AAAAB"/>
<path d="M56.9517 33.7374H53.6898V36.1288H56.7711V37.534H53.6898V41.3811H52.1437V32.2781H56.9553V33.7338L56.9517 33.7374Z" fill="#2AAAAB"/>
<path d="M65.2095 37.7399C65.2095 39.8856 63.649 41.5364 61.4274 41.5364C59.2058 41.5364 57.6453 39.8856 57.6453 37.7399C57.6453 35.5942 59.2203 33.9433 61.4274 33.9433C63.6345 33.9433 65.2095 35.5942 65.2095 37.7399ZM61.4274 40.1096C62.8073 40.1096 63.6634 39.0837 63.6634 37.7435C63.6634 36.4033 62.8037 35.3774 61.4274 35.3774C60.0511 35.3774 59.1914 36.4033 59.1914 37.7435C59.1914 39.0837 60.0619 40.1096 61.4274 40.1096Z" fill="#2AAAAB"/>
<path d="M66.2137 38.4045V34.1023H67.7489V38.4443C67.7489 39.4449 68.2546 40.1204 69.2697 40.1204C70.2848 40.1204 70.7905 39.4196 70.7905 38.4045V34.1023H72.3257V38.4045C72.3257 40.3046 71.3251 41.5364 69.2552 41.5364C67.1854 41.5364 66.2137 40.301 66.2137 38.4045Z" fill="#2AAAAB"/>
<path d="M75.1217 34.1023V35.4533C75.4974 34.4382 76.3318 33.9433 77.3324 33.9433C78.7123 33.9433 79.8285 34.8789 79.8285 36.8043V41.3811H78.2933V36.9849C78.2933 35.959 77.7984 35.2691 76.7725 35.2691C75.6816 35.2691 75.147 36.0493 75.147 37.1294V41.3811H73.6117V34.0987H75.1217V34.1023Z" fill="#2AAAAB"/>
<path d="M84.2608 33.9433C85.4059 33.9433 86.327 34.4888 86.8364 35.5291V31.6278H88.3716V41.3811H86.8761V40.0554C86.3162 41.0307 85.3806 41.5364 84.2608 41.5364C82.3499 41.5364 80.8291 40.0409 80.8291 37.7399C80.8291 35.4388 82.3499 33.9433 84.2608 33.9433ZM84.6004 35.3485C83.1952 35.3485 82.3752 36.4286 82.3752 37.7399C82.3752 39.0511 83.1952 40.1312 84.6004 40.1312C86.0055 40.1312 86.8761 39.0511 86.8761 37.7399C86.8761 36.4286 86.0164 35.3485 84.6004 35.3485Z" fill="#2AAAAB"/>
<path d="M91.2831 37.4292L93.6095 36.6634C93.53 35.7386 93.064 35.363 92.1031 35.363C91.4926 35.363 90.8027 35.5075 89.8274 35.8579V34.3876C90.6726 34.1276 91.4926 33.9469 92.2837 33.9469C94.2994 33.9469 95.1591 35.1823 95.1591 36.9632V41.3847H93.6636V40.3841C93.2482 41.0993 92.4933 41.54 91.5577 41.54C90.232 41.54 89.4517 40.6803 89.4517 39.5785C89.4517 38.5526 90.1272 37.8085 91.2867 37.4328L91.2831 37.4292ZM92.0923 40.3552C92.887 40.3552 93.6275 39.7447 93.6275 38.8452V37.8446L91.937 38.3901C91.3265 38.5851 91.0014 38.9355 91.0014 39.4051C91.0014 39.9398 91.4312 40.3552 92.0923 40.3552Z" fill="#2AAAAB"/>
<path d="M97.0339 39.2643V35.4822H95.9286V34.1023H97.0339V32.6862L98.5692 32.2564V34.1023H100.375V35.4822H98.5692V39.0584C98.5692 39.8386 98.804 40.0337 99.4542 40.0337C99.7648 40.0337 100.079 39.994 100.364 39.9289V41.345C99.9743 41.41 99.5842 41.4605 99.1688 41.4605C97.6227 41.4605 97.0375 40.7309 97.0375 39.2643H97.0339Z" fill="#2AAAAB"/>
<path d="M101.441 31.6965H103.027V32.9969H101.441V31.6965ZM102.987 34.1023V41.3847H101.452V34.1023H102.987Z" fill="#2AAAAB"/>
<path d="M111.584 37.7399C111.584 39.8856 110.024 41.5364 107.802 41.5364C105.581 41.5364 104.02 39.8856 104.02 37.7399C104.02 35.5942 105.595 33.9433 107.802 33.9433C110.009 33.9433 111.584 35.5942 111.584 37.7399ZM107.799 40.1096C109.179 40.1096 110.035 39.0837 110.035 37.7435C110.035 36.4033 109.175 35.3774 107.799 35.3774C106.422 35.3774 105.563 36.4033 105.563 37.7435C105.563 39.0837 106.433 40.1096 107.799 40.1096Z" fill="#2AAAAB"/>
<path d="M114.106 34.1023V35.4533C114.481 34.4382 115.316 33.9433 116.316 33.9433C117.696 33.9433 118.813 34.8789 118.813 36.8043V41.3811H117.277V36.9849C117.277 35.959 116.782 35.2691 115.757 35.2691C114.666 35.2691 114.131 36.0493 114.131 37.1294V41.3811H112.596V34.0987H114.106V34.1023Z" fill="#2AAAAB"/>
</svg>
