<svg width="132" height="40" viewBox="0 0 132 40" fill="none" xmlns="http://www.w3.org/2000/svg">
<path d="M20 40C31.0457 40 40 31.0457 40 20C40 8.95431 31.0457 0 20 0C8.95431 0 0 8.95431 0 20C0 31.0457 8.95431 40 20 40Z" fill="#542BC9"/>
<path d="M32.7468 11.1332C32.8234 11.1066 33.5868 14.1366 32.7468 22.7799C32.6234 24.0532 31.6968 25.2232 30.2034 25.8999C29.0034 26.4432 28.6501 26.4032 27.0801 27.0166C26.3801 27.2899 24.8934 28.1566 24.0901 29.8732C23.4601 31.2232 23.5601 32.5299 23.6901 33.2632C23.0434 32.7099 22.0201 31.6599 21.5034 30.0499C20.5801 27.1832 21.5301 23.8066 23.5101 22.2866C24.2501 21.7166 25.6201 21.0366 26.7668 20.5899C27.5901 20.2699 28.0001 20.1899 28.5968 19.8299C29.7101 19.1599 30.3601 18.1899 30.7368 17.4666C30.8534 19.4099 30.3534 20.2632 29.8434 20.6799C29.4268 21.0199 27.2434 22.4499 27.5234 22.9099C27.7768 23.3299 28.3868 23.1632 28.8634 22.9099C29.9301 22.3466 30.6634 21.4799 30.9734 20.4399C31.6568 18.1466 31.4101 11.6132 32.7468 11.1332Z" fill="#E4DCFC"/>
<path d="M7.25339 11.1332C7.17672 11.1066 6.41339 14.1366 7.25339 22.7799C7.37672 24.0532 8.30339 25.2232 9.79672 25.8999C10.9967 26.4432 11.3501 26.4032 12.9201 27.0166C13.6201 27.2899 15.1067 28.1566 15.9101 29.8732C16.5401 31.2232 16.4401 32.5299 16.3101 33.2632C16.9567 32.7099 17.9801 31.6599 18.4967 30.0499C19.4201 27.1832 18.4701 23.8066 16.4901 22.2866C15.7501 21.7166 14.3801 21.0366 13.2334 20.5899C12.4101 20.2699 12.0001 20.1899 11.4034 19.8299C10.2901 19.1599 9.64006 18.1899 9.26339 17.4666C9.14672 19.4099 9.64672 20.2632 10.1567 20.6799C10.5734 21.0199 12.7567 22.4499 12.4767 22.9099C12.2234 23.3299 11.6134 23.1632 11.1367 22.9099C10.0701 22.3466 9.33672 21.4799 9.02672 20.4399C8.34339 18.1466 8.59006 11.6132 7.25339 11.1332Z" fill="#E4DCFC"/>
<path d="M21.8601 12.96C21.4434 12.5933 21.0367 12.2333 20.6134 11.8633C21.3867 11.25 22.0267 10.49 22.9901 10.1566C24.9434 9.48331 27.1067 10.59 27.6367 12.5466C28.2134 14.6866 26.8201 16.7466 24.6167 17.0066C23.5134 17.1366 22.5467 16.8133 21.7167 16.0833C20.2334 14.7833 18.7434 13.49 17.2634 12.1866C16.9034 11.87 16.5001 11.6533 16.0167 11.5966C15.1634 11.5 13.9501 12.0466 13.8734 13.32C13.8234 14.14 14.1201 14.7833 14.8634 15.16C15.6334 15.55 16.3901 15.4833 17.0801 14.95C17.4401 14.67 17.7767 14.3566 18.1367 14.05C18.5467 14.4066 18.9567 14.76 19.3801 15.1266C18.9701 15.4833 18.5701 15.8333 18.1667 16.1766C17.7034 16.57 17.1734 16.8266 16.5801 16.9566C14.7201 17.3633 12.8134 16.25 12.3601 14.4466C11.6934 11.8033 13.7501 9.80998 16.0967 9.96664C16.9301 10.0233 17.6534 10.36 18.2834 10.91C19.7767 12.22 21.2767 13.5266 22.7734 14.8366C23.1734 15.1866 23.6267 15.41 24.1601 15.4C25.8167 15.3666 26.5001 13.9266 25.9634 12.6633C25.6701 11.9766 24.8434 11.5333 24.0667 11.5966C23.5767 11.6366 23.1534 11.8166 22.7867 12.1433C22.4867 12.4133 22.1801 12.6766 21.8667 12.9533L21.8601 12.96Z" fill="#E4DCFC"/>
<path d="M20 40C31.0457 40 40 31.0457 40 20C40 8.95431 31.0457 0 20 0C8.95431 0 0 8.95431 0 20C0 31.0457 8.95431 40 20 40Z" fill="#542BC9"/>
<path d="M32.7468 11.1332C32.8234 11.1066 33.5868 14.1366 32.7468 22.7799C32.6234 24.0532 31.6968 25.2232 30.2034 25.8999C29.0034 26.4432 28.6501 26.4032 27.0801 27.0166C26.3801 27.2899 24.8934 28.1566 24.0901 29.8732C23.4601 31.2232 23.5601 32.5299 23.6901 33.2632C23.0434 32.7099 22.0201 31.6599 21.5034 30.0499C20.5801 27.1832 21.5301 23.8066 23.5101 22.2866C24.2501 21.7166 25.6201 21.0366 26.7668 20.5899C27.5901 20.2699 28.0001 20.1899 28.5968 19.8299C29.7101 19.1599 30.3601 18.1899 30.7368 17.4666C30.8534 19.4099 30.3534 20.2632 29.8434 20.6799C29.4268 21.0199 27.2434 22.4499 27.5234 22.9099C27.7768 23.3299 28.3868 23.1632 28.8634 22.9099C29.9301 22.3466 30.6634 21.4799 30.9734 20.4399C31.6568 18.1466 31.4101 11.6132 32.7468 11.1332Z" fill="#E4DCFC"/>
<path d="M7.25339 11.1332C7.17672 11.1066 6.41339 14.1366 7.25339 22.7799C7.37672 24.0532 8.30339 25.2232 9.79672 25.8999C10.9967 26.4432 11.3501 26.4032 12.9201 27.0166C13.6201 27.2899 15.1067 28.1566 15.9101 29.8732C16.5401 31.2232 16.4401 32.5299 16.3101 33.2632C16.9567 32.7099 17.9801 31.6599 18.4967 30.0499C19.4201 27.1832 18.4701 23.8066 16.4901 22.2866C15.7501 21.7166 14.3801 21.0366 13.2334 20.5899C12.4101 20.2699 12.0001 20.1899 11.4034 19.8299C10.2901 19.1599 9.64006 18.1899 9.26339 17.4666C9.14672 19.4099 9.64672 20.2632 10.1567 20.6799C10.5734 21.0199 12.7567 22.4499 12.4767 22.9099C12.2234 23.3299 11.6134 23.1632 11.1367 22.9099C10.0701 22.3466 9.33672 21.4799 9.02672 20.4399C8.34339 18.1466 8.59006 11.6132 7.25339 11.1332Z" fill="#E4DCFC"/>
<path d="M21.8601 12.96C21.4434 12.5933 21.0367 12.2333 20.6134 11.8633C21.3867 11.25 22.0267 10.49 22.9901 10.1566C24.9434 9.48331 27.1067 10.59 27.6367 12.5466C28.2134 14.6866 26.8201 16.7466 24.6167 17.0066C23.5134 17.1366 22.5467 16.8133 21.7167 16.0833C20.2334 14.7833 18.7434 13.49 17.2634 12.1866C16.9034 11.87 16.5001 11.6533 16.0167 11.5966C15.1634 11.5 13.9501 12.0466 13.8734 13.32C13.8234 14.14 14.1201 14.7833 14.8634 15.16C15.6334 15.55 16.3901 15.4833 17.0801 14.95C17.4401 14.67 17.7767 14.3566 18.1367 14.05C18.5467 14.4066 18.9567 14.76 19.3801 15.1266C18.9701 15.4833 18.5701 15.8333 18.1667 16.1766C17.7034 16.57 17.1734 16.8266 16.5801 16.9566C14.7201 17.3633 12.8134 16.25 12.3601 14.4466C11.6934 11.8033 13.7501 9.80998 16.0967 9.96664C16.9301 10.0233 17.6534 10.36 18.2834 10.91C19.7767 12.22 21.2767 13.5266 22.7734 14.8366C23.1734 15.1866 23.6267 15.41 24.1601 15.4C25.8167 15.3666 26.5001 13.9266 25.9634 12.6633C25.6701 11.9766 24.8434 11.5333 24.0667 11.5966C23.5767 11.6366 23.1534 11.8166 22.7867 12.1433C22.4867 12.4133 22.1801 12.6766 21.8667 12.9533L21.8601 12.96Z" fill="#E4DCFC"/>
<path d="M47.9366 4.72657C47.9366 3.27324 48.92 2.3999 50.4566 2.3999C51.1633 2.3999 51.85 2.5799 52.5566 2.85657V4.3199C51.6433 3.94657 51.0333 3.74324 50.47 3.74324C49.7366 3.74324 49.3666 4.0899 49.3666 4.65657C49.3666 5.22324 49.7266 5.4599 50.3033 5.78324L51.3 6.3099C52.2366 6.81324 52.8466 7.49657 52.8466 8.69657C52.8466 10.1599 51.8733 11.0366 50.34 11.0366C49.62 11.0366 48.9 10.8432 48.18 10.5799V9.09324C49.1266 9.46657 49.75 9.6799 50.3266 9.6799C51.0466 9.6799 51.42 9.29657 51.42 8.70657C51.42 8.11657 51.0833 7.8199 50.4966 7.48324L49.49 6.95657C48.5766 6.46324 47.9433 5.8399 47.9433 4.72324L47.9366 4.72657Z" fill="#542BC9"/>
<path d="M56.84 5.27992C55.8333 5.27992 55.34 5.99992 55.34 6.99659V10.9199H53.9233V1.91992H55.34V5.38659C55.7 4.49992 56.4567 4.05325 57.3567 4.05325C58.63 4.05325 59.66 4.91659 59.66 6.69325V10.9166H58.2433V6.85992C58.2433 5.91325 57.7867 5.27659 56.84 5.27659V5.27992Z" fill="#542BC9"/>
<path d="M62.3333 7.26997L64.48 6.56331C64.4066 5.70997 63.9766 5.36331 63.09 5.36331C62.5266 5.36331 61.89 5.49664 60.99 5.81997V4.46331C61.77 4.22331 62.5266 4.05664 63.2566 4.05664C65.1166 4.05664 65.91 5.19664 65.91 6.83997V10.92H64.53V9.99664C64.1466 10.6566 63.45 11.0633 62.5866 11.0633C61.3633 11.0633 60.6433 10.27 60.6433 9.24997C60.6433 8.30331 61.2666 7.61664 62.3366 7.26997H62.3333ZM63.08 9.96997C63.8133 9.96997 64.4966 9.40664 64.4966 8.57664V7.65331L62.9366 8.15664C62.3733 8.33664 62.0733 8.65997 62.0733 9.09331C62.0733 9.58664 62.47 9.96997 63.08 9.96997Z" fill="#542BC9"/>
<path d="M67.1599 1.91992H68.5766V10.9199H67.1599V1.91992Z" fill="#542BC9"/>
<path d="M71.3333 7.26997L73.48 6.56331C73.4066 5.70997 72.9766 5.36331 72.09 5.36331C71.5266 5.36331 70.89 5.49664 69.99 5.81997V4.46331C70.77 4.22331 71.5266 4.05664 72.2566 4.05664C74.1166 4.05664 74.91 5.19664 74.91 6.83997V10.92H73.53V9.99664C73.1466 10.6566 72.45 11.0633 71.5866 11.0633C70.3633 11.0633 69.6433 10.27 69.6433 9.24997C69.6433 8.30331 70.2666 7.61664 71.3366 7.26997H71.3333ZM72.08 9.96997C72.8133 9.96997 73.4966 9.40664 73.4966 8.57664V7.65331L71.9366 8.15664C71.3733 8.33664 71.0733 8.65997 71.0733 9.09331C71.0733 9.58664 71.47 9.96997 72.08 9.96997Z" fill="#542BC9"/>
<path d="M79.4833 5.38656C78.0799 5.38656 77.2632 6.29989 77.2632 7.55656C77.2632 8.81322 78.0799 9.72989 79.4833 9.72989C80.0833 9.72989 80.6099 9.56322 81.1499 9.40656V10.7732C80.5733 10.9666 80.0099 11.0599 79.4566 11.0599C77.3199 11.0599 75.8333 9.60656 75.8333 7.55656C75.8333 5.50656 77.3199 4.05322 79.4566 4.05322C80.0099 4.05322 80.5733 4.14989 81.1499 4.33989V5.70656C80.6099 5.53989 80.0699 5.38322 79.4833 5.38322V5.38656Z" fill="#542BC9"/>
<path d="M85.1466 5.27992C84.14 5.27992 83.6466 5.99992 83.6466 6.99659V10.9199H82.23V1.91992H83.6466V5.38659C84.0066 4.49992 84.7633 4.05325 85.6633 4.05325C86.9366 4.05325 87.9666 4.91659 87.9666 6.69325V10.9166H86.55V6.85992C86.55 5.91325 86.0933 5.27659 85.1466 5.27659V5.27992Z" fill="#542BC9"/>
<path d="M52.6733 17.1833H49.5433V19.3433H52.5066V20.6166H49.5433V22.9199H52.6733V24.2533H48.1133V15.8533H52.6733V17.1866V17.1833Z" fill="#542BC9"/>
<path d="M55.2067 17.5332V18.7699C55.5434 17.8466 56.2867 17.3899 57.1867 17.3899C58.0867 17.3899 58.9134 17.8832 59.25 18.8666C59.5967 17.8832 60.4267 17.3899 61.35 17.3899C62.5867 17.3899 63.6167 18.2532 63.6167 20.0299V24.2532H62.2V20.1966C62.2 19.2499 61.7667 18.6132 60.8567 18.6132C59.8834 18.6132 59.43 19.3332 59.43 20.3299V24.2532H58.0134V20.1966C58.0134 19.2499 57.58 18.6132 56.67 18.6132C55.6967 18.6132 55.23 19.3332 55.23 20.3299V24.2532H53.8134V17.5332H55.2034H55.2067Z" fill="#542BC9"/>
<path d="M64.8066 17.5332H66.1866V18.7566C66.7033 17.8566 67.5666 17.3899 68.6 17.3899C70.3633 17.3899 71.7666 18.7699 71.7666 20.8932C71.7666 23.0166 70.3633 24.3966 68.6 24.3966C67.5433 24.3966 66.6933 23.8932 66.2233 22.9332V26.5332H64.8066V17.5332ZM68.2866 23.0999C69.5833 23.0999 70.34 22.1032 70.34 20.8932C70.34 19.6832 69.5833 18.6866 68.2866 18.6866C66.99 18.6866 66.1866 19.6832 66.1866 20.8932C66.1866 22.1032 66.98 23.0999 68.2866 23.0999Z" fill="#542BC9"/>
<path d="M79.4234 20.8901C79.4234 22.8701 77.9834 24.3934 75.9334 24.3934C73.8834 24.3934 72.4434 22.8701 72.4434 20.8901C72.4434 18.9101 73.8967 17.3867 75.9334 17.3867C77.97 17.3867 79.4234 18.9101 79.4234 20.8901ZM75.93 23.0767C77.2034 23.0767 77.9934 22.1301 77.9934 20.8934C77.9934 19.6567 77.2 18.7101 75.93 18.7101C74.66 18.7101 73.8667 19.6567 73.8667 20.8934C73.8667 22.1301 74.67 23.0767 75.93 23.0767Z" fill="#542BC9"/>
<path d="M79.6733 17.5334H81.1499L82.6366 23.2934L84.0999 17.5334H85.9233L87.4466 23.2801L88.9099 17.5334H90.3499L88.4899 24.2534H86.2833L84.9499 19.1301L83.6166 24.2534H81.5299L79.6699 17.5334H79.6733Z" fill="#542BC9"/>
<path d="M90.5467 20.8901C90.5467 18.8967 91.8533 17.3867 93.87 17.3867C95.8867 17.3867 97 18.9001 97 20.6501C97 20.9367 96.9767 21.2034 96.94 21.4301H92.02C92.1267 22.3301 92.8733 23.1234 94.2867 23.1234C95.0067 23.1234 95.74 22.9067 96.4833 22.4767V23.8567C95.7167 24.2301 94.9233 24.3967 94.18 24.3967C91.9233 24.3967 90.5433 22.9201 90.5433 20.8934L90.5467 20.8901ZM95.5733 20.3634C95.5133 19.3667 94.9733 18.6234 93.8467 18.6234C92.72 18.6234 92.0967 19.4167 92.0233 20.3634H95.5733Z" fill="#542BC9"/>
<path d="M99.3299 17.5334V19.0701C99.7033 18.0368 100.47 17.4368 101.707 17.4368V18.9234C101.54 18.9001 101.36 18.8868 101.203 18.8868C100.003 18.8868 99.3566 19.6068 99.3566 21.0334V24.2501H97.9399V17.5301H99.3333L99.3299 17.5334Z" fill="#542BC9"/>
<path d="M103.76 17.5332V18.7699C104.097 17.8466 104.84 17.3899 105.74 17.3899C106.64 17.3899 107.467 17.8832 107.803 18.8666C108.15 17.8832 108.98 17.3899 109.903 17.3899C111.14 17.3899 112.17 18.2532 112.17 20.0299V24.2532H110.753V20.1966C110.753 19.2499 110.32 18.6132 109.41 18.6132C108.437 18.6132 107.983 19.3332 107.983 20.3299V24.2532H106.567V20.1966C106.567 19.2499 106.133 18.6132 105.223 18.6132C104.25 18.6132 103.783 19.3332 103.783 20.3299V24.2532H102.367V17.5332H103.76Z" fill="#542BC9"/>
<path d="M113.093 20.8901C113.093 18.8967 114.4 17.3867 116.417 17.3867C118.433 17.3867 119.547 18.9001 119.547 20.6501C119.547 20.9367 119.523 21.2034 119.487 21.4301H114.567C114.673 22.3301 115.42 23.1234 116.833 23.1234C117.553 23.1234 118.287 22.9067 119.03 22.4767V23.8567C118.263 24.2301 117.47 24.3967 116.727 24.3967C114.47 24.3967 113.09 22.9201 113.09 20.8934L113.093 20.8901ZM118.12 20.3634C118.06 19.3667 117.52 18.6234 116.393 18.6234C115.267 18.6234 114.643 19.4167 114.57 20.3634H118.12Z" fill="#542BC9"/>
<path d="M121.877 17.5334V18.7801C122.223 17.8434 122.993 17.3867 123.917 17.3867C125.19 17.3867 126.22 18.2501 126.22 20.0267V24.2501H124.803V20.1934C124.803 19.2467 124.347 18.6101 123.4 18.6101C122.393 18.6101 121.9 19.3301 121.9 20.3267V24.2501H120.483V17.5301H121.877V17.5334Z" fill="#542BC9"/>
<path d="M127.95 22.2967V18.8067H126.93V17.5334H127.95V16.2267L129.367 15.8301V17.5334H131.033V18.8067H129.367V22.1067C129.367 22.8267 129.583 23.0067 130.183 23.0067C130.47 23.0067 130.76 22.9701 131.023 22.9101V24.2167C130.663 24.2767 130.303 24.3234 129.92 24.3234C128.493 24.3234 127.953 23.6501 127.953 22.2967H127.95Z" fill="#542BC9"/>
<path d="M52.5534 30.53H49.5434V32.7367H52.3867V34.0333H49.5434V37.5833H48.1167V29.1833H52.5567V30.5267L52.5534 30.53Z" fill="#542BC9"/>
<path d="M60.1734 34.2233C60.1734 36.2033 58.7334 37.7266 56.6834 37.7266C54.6334 37.7266 53.1934 36.2033 53.1934 34.2233C53.1934 32.2433 54.6467 30.72 56.6834 30.72C58.72 30.72 60.1734 32.2433 60.1734 34.2233ZM56.6834 36.41C57.9567 36.41 58.7467 35.4633 58.7467 34.2266C58.7467 32.99 57.9534 32.0433 56.6834 32.0433C55.4134 32.0433 54.62 32.99 54.62 34.2266C54.62 35.4633 55.4234 36.41 56.6834 36.41Z" fill="#542BC9"/>
<path d="M61.1 34.8367V30.8667H62.5166V34.8734C62.5166 35.7967 62.9833 36.42 63.92 36.42C64.8566 36.42 65.3233 35.7734 65.3233 34.8367V30.8667H66.74V34.8367C66.74 36.59 65.8166 37.7267 63.9066 37.7267C61.9966 37.7267 61.1 36.5867 61.1 34.8367Z" fill="#542BC9"/>
<path d="M69.32 30.8666V32.1133C69.6666 31.1766 70.4366 30.72 71.36 30.72C72.6333 30.72 73.6633 31.5833 73.6633 33.36V37.5833H72.2466V33.5266C72.2466 32.58 71.79 31.9433 70.8433 31.9433C69.8366 31.9433 69.3433 32.6633 69.3433 33.66V37.5833H67.9266V30.8633H69.32V30.8666Z" fill="#542BC9"/>
<path d="M77.7533 30.7199C78.81 30.7199 79.66 31.2233 80.13 32.1833V28.5833H81.5467V37.5833H80.1667V36.3599C79.65 37.2599 78.7867 37.7266 77.7533 37.7266C75.99 37.7266 74.5867 36.3466 74.5867 34.2233C74.5867 32.0999 75.99 30.7199 77.7533 30.7199ZM78.0667 32.0166C76.77 32.0166 76.0133 33.0133 76.0133 34.2233C76.0133 35.4333 76.77 36.4299 78.0667 36.4299C79.3633 36.4299 80.1667 35.4333 80.1667 34.2233C80.1667 33.0133 79.3733 32.0166 78.0667 32.0166Z" fill="#542BC9"/>
<path d="M84.2333 33.9367L86.38 33.2301C86.3067 32.3767 85.8767 32.0301 84.99 32.0301C84.4267 32.0301 83.79 32.1634 82.89 32.4867V31.1301C83.67 30.8901 84.4267 30.7234 85.1567 30.7234C87.0167 30.7234 87.81 31.8634 87.81 33.5067V37.5867H86.43V36.6634C86.0467 37.3234 85.35 37.7301 84.4867 37.7301C83.2633 37.7301 82.5433 36.9367 82.5433 35.9201C82.5433 34.9734 83.1667 34.2867 84.2367 33.9401L84.2333 33.9367ZM84.98 36.6367C85.7133 36.6367 86.3967 36.0734 86.3967 35.2434V34.3201L84.8367 34.8234C84.2733 35.0034 83.9733 35.3267 83.9733 35.7601C83.9733 36.2534 84.37 36.6367 84.98 36.6367Z" fill="#542BC9"/>
<path d="M89.54 35.63V32.14H88.52V30.8667H89.54V29.56L90.9567 29.1633V30.8667H92.6234V32.14H90.9567V35.44C90.9567 36.16 91.1734 36.34 91.7734 36.34C92.06 36.34 92.35 36.3033 92.6134 36.2433V37.55C92.2534 37.61 91.8934 37.6567 91.51 37.6567C90.0834 37.6567 89.5434 36.9833 89.5434 35.63H89.54Z" fill="#542BC9"/>
<path d="M93.6067 28.6467H95.07V29.8467H93.6067V28.6467ZM95.0334 30.8667V37.5867H93.6167V30.8667H95.0334Z" fill="#542BC9"/>
<path d="M102.967 34.2233C102.967 36.2033 101.527 37.7266 99.4767 37.7266C97.4267 37.7266 95.9867 36.2033 95.9867 34.2233C95.9867 32.2433 97.44 30.72 99.4767 30.72C101.513 30.72 102.967 32.2433 102.967 34.2233ZM99.4734 36.41C100.747 36.41 101.537 35.4633 101.537 34.2266C101.537 32.99 100.743 32.0433 99.4734 32.0433C98.2034 32.0433 97.41 32.99 97.41 34.2266C97.41 35.4633 98.2134 36.41 99.4734 36.41Z" fill="#542BC9"/>
<path d="M105.293 30.8666V32.1133C105.64 31.1766 106.41 30.72 107.333 30.72C108.607 30.72 109.637 31.5833 109.637 33.36V37.5833H108.22V33.5266C108.22 32.58 107.763 31.9433 106.817 31.9433C105.81 31.9433 105.317 32.6633 105.317 33.66V37.5833H103.9V30.8633H105.293V30.8666Z" fill="#542BC9"/>
<path d="M47.9366 4.72657C47.9366 3.27324 48.92 2.3999 50.4566 2.3999C51.1633 2.3999 51.85 2.5799 52.5566 2.85657V4.3199C51.6433 3.94657 51.0333 3.74324 50.47 3.74324C49.7366 3.74324 49.3666 4.0899 49.3666 4.65657C49.3666 5.22324 49.7266 5.4599 50.3033 5.78324L51.3 6.3099C52.2366 6.81324 52.8466 7.49657 52.8466 8.69657C52.8466 10.1599 51.8733 11.0366 50.34 11.0366C49.62 11.0366 48.9 10.8432 48.18 10.5799V9.09324C49.1266 9.46657 49.75 9.6799 50.3266 9.6799C51.0466 9.6799 51.42 9.29657 51.42 8.70657C51.42 8.11657 51.0833 7.8199 50.4966 7.48324L49.49 6.95657C48.5766 6.46324 47.9433 5.8399 47.9433 4.72324L47.9366 4.72657Z" fill="#542BC9"/>
<path d="M56.84 5.27992C55.8333 5.27992 55.34 5.99992 55.34 6.99659V10.9199H53.9233V1.91992H55.34V5.38659C55.7 4.49992 56.4567 4.05325 57.3567 4.05325C58.63 4.05325 59.66 4.91659 59.66 6.69325V10.9166H58.2433V6.85992C58.2433 5.91325 57.7867 5.27659 56.84 5.27659V5.27992Z" fill="#542BC9"/>
<path d="M62.3333 7.26997L64.48 6.56331C64.4066 5.70997 63.9766 5.36331 63.09 5.36331C62.5266 5.36331 61.89 5.49664 60.99 5.81997V4.46331C61.77 4.22331 62.5266 4.05664 63.2566 4.05664C65.1166 4.05664 65.91 5.19664 65.91 6.83997V10.92H64.53V9.99664C64.1466 10.6566 63.45 11.0633 62.5866 11.0633C61.3633 11.0633 60.6433 10.27 60.6433 9.24997C60.6433 8.30331 61.2666 7.61664 62.3366 7.26997H62.3333ZM63.08 9.96997C63.8133 9.96997 64.4966 9.40664 64.4966 8.57664V7.65331L62.9366 8.15664C62.3733 8.33664 62.0733 8.65997 62.0733 9.09331C62.0733 9.58664 62.47 9.96997 63.08 9.96997Z" fill="#542BC9"/>
<path d="M67.1599 1.91992H68.5766V10.9199H67.1599V1.91992Z" fill="#542BC9"/>
<path d="M71.3333 7.26997L73.48 6.56331C73.4066 5.70997 72.9766 5.36331 72.09 5.36331C71.5266 5.36331 70.89 5.49664 69.99 5.81997V4.46331C70.77 4.22331 71.5266 4.05664 72.2566 4.05664C74.1166 4.05664 74.91 5.19664 74.91 6.83997V10.92H73.53V9.99664C73.1466 10.6566 72.45 11.0633 71.5866 11.0633C70.3633 11.0633 69.6433 10.27 69.6433 9.24997C69.6433 8.30331 70.2666 7.61664 71.3366 7.26997H71.3333ZM72.08 9.96997C72.8133 9.96997 73.4966 9.40664 73.4966 8.57664V7.65331L71.9366 8.15664C71.3733 8.33664 71.0733 8.65997 71.0733 9.09331C71.0733 9.58664 71.47 9.96997 72.08 9.96997Z" fill="#542BC9"/>
<path d="M79.4833 5.38656C78.0799 5.38656 77.2632 6.29989 77.2632 7.55656C77.2632 8.81322 78.0799 9.72989 79.4833 9.72989C80.0833 9.72989 80.6099 9.56322 81.1499 9.40656V10.7732C80.5733 10.9666 80.0099 11.0599 79.4566 11.0599C77.3199 11.0599 75.8333 9.60656 75.8333 7.55656C75.8333 5.50656 77.3199 4.05322 79.4566 4.05322C80.0099 4.05322 80.5733 4.14989 81.1499 4.33989V5.70656C80.6099 5.53989 80.0699 5.38322 79.4833 5.38322V5.38656Z" fill="#542BC9"/>
<path d="M85.1466 5.27992C84.14 5.27992 83.6466 5.99992 83.6466 6.99659V10.9199H82.23V1.91992H83.6466V5.38659C84.0066 4.49992 84.7633 4.05325 85.6633 4.05325C86.9366 4.05325 87.9666 4.91659 87.9666 6.69325V10.9166H86.55V6.85992C86.55 5.91325 86.0933 5.27659 85.1466 5.27659V5.27992Z" fill="#542BC9"/>
<path d="M52.6733 17.1833H49.5433V19.3433H52.5066V20.6166H49.5433V22.9199H52.6733V24.2533H48.1133V15.8533H52.6733V17.1866V17.1833Z" fill="#542BC9"/>
<path d="M55.2067 17.5332V18.7699C55.5434 17.8466 56.2867 17.3899 57.1867 17.3899C58.0867 17.3899 58.9134 17.8832 59.25 18.8666C59.5967 17.8832 60.4267 17.3899 61.35 17.3899C62.5867 17.3899 63.6167 18.2532 63.6167 20.0299V24.2532H62.2V20.1966C62.2 19.2499 61.7667 18.6132 60.8567 18.6132C59.8834 18.6132 59.43 19.3332 59.43 20.3299V24.2532H58.0134V20.1966C58.0134 19.2499 57.58 18.6132 56.67 18.6132C55.6967 18.6132 55.23 19.3332 55.23 20.3299V24.2532H53.8134V17.5332H55.2034H55.2067Z" fill="#542BC9"/>
<path d="M64.8066 17.5332H66.1866V18.7566C66.7033 17.8566 67.5666 17.3899 68.6 17.3899C70.3633 17.3899 71.7666 18.7699 71.7666 20.8932C71.7666 23.0166 70.3633 24.3966 68.6 24.3966C67.5433 24.3966 66.6933 23.8932 66.2233 22.9332V26.5332H64.8066V17.5332ZM68.2866 23.0999C69.5833 23.0999 70.34 22.1032 70.34 20.8932C70.34 19.6832 69.5833 18.6866 68.2866 18.6866C66.99 18.6866 66.1866 19.6832 66.1866 20.8932C66.1866 22.1032 66.98 23.0999 68.2866 23.0999Z" fill="#542BC9"/>
<path d="M79.4234 20.8901C79.4234 22.8701 77.9834 24.3934 75.9334 24.3934C73.8834 24.3934 72.4434 22.8701 72.4434 20.8901C72.4434 18.9101 73.8967 17.3867 75.9334 17.3867C77.97 17.3867 79.4234 18.9101 79.4234 20.8901ZM75.93 23.0767C77.2034 23.0767 77.9934 22.1301 77.9934 20.8934C77.9934 19.6567 77.2 18.7101 75.93 18.7101C74.66 18.7101 73.8667 19.6567 73.8667 20.8934C73.8667 22.1301 74.67 23.0767 75.93 23.0767Z" fill="#542BC9"/>
<path d="M79.6733 17.5334H81.1499L82.6366 23.2934L84.0999 17.5334H85.9233L87.4466 23.2801L88.9099 17.5334H90.3499L88.4899 24.2534H86.2833L84.9499 19.1301L83.6166 24.2534H81.5299L79.6699 17.5334H79.6733Z" fill="#542BC9"/>
<path d="M90.5467 20.8901C90.5467 18.8967 91.8533 17.3867 93.87 17.3867C95.8867 17.3867 97 18.9001 97 20.6501C97 20.9367 96.9767 21.2034 96.94 21.4301H92.02C92.1267 22.3301 92.8733 23.1234 94.2867 23.1234C95.0067 23.1234 95.74 22.9067 96.4833 22.4767V23.8567C95.7167 24.2301 94.9233 24.3967 94.18 24.3967C91.9233 24.3967 90.5433 22.9201 90.5433 20.8934L90.5467 20.8901ZM95.5733 20.3634C95.5133 19.3667 94.9733 18.6234 93.8467 18.6234C92.72 18.6234 92.0967 19.4167 92.0233 20.3634H95.5733Z" fill="#542BC9"/>
<path d="M99.3299 17.5334V19.0701C99.7033 18.0368 100.47 17.4368 101.707 17.4368V18.9234C101.54 18.9001 101.36 18.8868 101.203 18.8868C100.003 18.8868 99.3566 19.6068 99.3566 21.0334V24.2501H97.9399V17.5301H99.3333L99.3299 17.5334Z" fill="#542BC9"/>
<path d="M103.76 17.5332V18.7699C104.097 17.8466 104.84 17.3899 105.74 17.3899C106.64 17.3899 107.467 17.8832 107.803 18.8666C108.15 17.8832 108.98 17.3899 109.903 17.3899C111.14 17.3899 112.17 18.2532 112.17 20.0299V24.2532H110.753V20.1966C110.753 19.2499 110.32 18.6132 109.41 18.6132C108.437 18.6132 107.983 19.3332 107.983 20.3299V24.2532H106.567V20.1966C106.567 19.2499 106.133 18.6132 105.223 18.6132C104.25 18.6132 103.783 19.3332 103.783 20.3299V24.2532H102.367V17.5332H103.76Z" fill="#542BC9"/>
<path d="M113.093 20.8901C113.093 18.8967 114.4 17.3867 116.417 17.3867C118.433 17.3867 119.547 18.9001 119.547 20.6501C119.547 20.9367 119.523 21.2034 119.487 21.4301H114.567C114.673 22.3301 115.42 23.1234 116.833 23.1234C117.553 23.1234 118.287 22.9067 119.03 22.4767V23.8567C118.263 24.2301 117.47 24.3967 116.727 24.3967C114.47 24.3967 113.09 22.9201 113.09 20.8934L113.093 20.8901ZM118.12 20.3634C118.06 19.3667 117.52 18.6234 116.393 18.6234C115.267 18.6234 114.643 19.4167 114.57 20.3634H118.12Z" fill="#542BC9"/>
<path d="M121.877 17.5334V18.7801C122.223 17.8434 122.993 17.3867 123.917 17.3867C125.19 17.3867 126.22 18.2501 126.22 20.0267V24.2501H124.803V20.1934C124.803 19.2467 124.347 18.6101 123.4 18.6101C122.393 18.6101 121.9 19.3301 121.9 20.3267V24.2501H120.483V17.5301H121.877V17.5334Z" fill="#542BC9"/>
<path d="M127.95 22.2967V18.8067H126.93V17.5334H127.95V16.2267L129.367 15.8301V17.5334H131.033V18.8067H129.367V22.1067C129.367 22.8267 129.583 23.0067 130.183 23.0067C130.47 23.0067 130.76 22.9701 131.023 22.9101V24.2167C130.663 24.2767 130.303 24.3234 129.92 24.3234C128.493 24.3234 127.953 23.6501 127.953 22.2967H127.95Z" fill="#542BC9"/>
<path d="M52.5534 30.53H49.5434V32.7367H52.3867V34.0333H49.5434V37.5833H48.1167V29.1833H52.5567V30.5267L52.5534 30.53Z" fill="#542BC9"/>
<path d="M60.1734 34.2233C60.1734 36.2033 58.7334 37.7266 56.6834 37.7266C54.6334 37.7266 53.1934 36.2033 53.1934 34.2233C53.1934 32.2433 54.6467 30.72 56.6834 30.72C58.72 30.72 60.1734 32.2433 60.1734 34.2233ZM56.6834 36.41C57.9567 36.41 58.7467 35.4633 58.7467 34.2266C58.7467 32.99 57.9534 32.0433 56.6834 32.0433C55.4134 32.0433 54.62 32.99 54.62 34.2266C54.62 35.4633 55.4234 36.41 56.6834 36.41Z" fill="#542BC9"/>
<path d="M61.1 34.8367V30.8667H62.5166V34.8734C62.5166 35.7967 62.9833 36.42 63.92 36.42C64.8566 36.42 65.3233 35.7734 65.3233 34.8367V30.8667H66.74V34.8367C66.74 36.59 65.8166 37.7267 63.9066 37.7267C61.9966 37.7267 61.1 36.5867 61.1 34.8367Z" fill="#542BC9"/>
<path d="M69.32 30.8666V32.1133C69.6666 31.1766 70.4366 30.72 71.36 30.72C72.6333 30.72 73.6633 31.5833 73.6633 33.36V37.5833H72.2466V33.5266C72.2466 32.58 71.79 31.9433 70.8433 31.9433C69.8366 31.9433 69.3433 32.6633 69.3433 33.66V37.5833H67.9266V30.8633H69.32V30.8666Z" fill="#542BC9"/>
<path d="M77.7533 30.7199C78.81 30.7199 79.66 31.2233 80.13 32.1833V28.5833H81.5467V37.5833H80.1667V36.3599C79.65 37.2599 78.7867 37.7266 77.7533 37.7266C75.99 37.7266 74.5867 36.3466 74.5867 34.2233C74.5867 32.0999 75.99 30.7199 77.7533 30.7199ZM78.0667 32.0166C76.77 32.0166 76.0133 33.0133 76.0133 34.2233C76.0133 35.4333 76.77 36.4299 78.0667 36.4299C79.3633 36.4299 80.1667 35.4333 80.1667 34.2233C80.1667 33.0133 79.3733 32.0166 78.0667 32.0166Z" fill="#542BC9"/>
<path d="M84.2333 33.9367L86.38 33.2301C86.3067 32.3767 85.8767 32.0301 84.99 32.0301C84.4267 32.0301 83.79 32.1634 82.89 32.4867V31.1301C83.67 30.8901 84.4267 30.7234 85.1567 30.7234C87.0167 30.7234 87.81 31.8634 87.81 33.5067V37.5867H86.43V36.6634C86.0467 37.3234 85.35 37.7301 84.4867 37.7301C83.2633 37.7301 82.5433 36.9367 82.5433 35.9201C82.5433 34.9734 83.1667 34.2867 84.2367 33.9401L84.2333 33.9367ZM84.98 36.6367C85.7133 36.6367 86.3967 36.0734 86.3967 35.2434V34.3201L84.8367 34.8234C84.2733 35.0034 83.9733 35.3267 83.9733 35.7601C83.9733 36.2534 84.37 36.6367 84.98 36.6367Z" fill="#542BC9"/>
<path d="M89.54 35.63V32.14H88.52V30.8667H89.54V29.56L90.9567 29.1633V30.8667H92.6234V32.14H90.9567V35.44C90.9567 36.16 91.1734 36.34 91.7734 36.34C92.06 36.34 92.35 36.3033 92.6134 36.2433V37.55C92.2534 37.61 91.8934 37.6567 91.51 37.6567C90.0834 37.6567 89.5434 36.9833 89.5434 35.63H89.54Z" fill="#542BC9"/>
<path d="M93.6067 28.6467H95.07V29.8467H93.6067V28.6467ZM95.0334 30.8667V37.5867H93.6167V30.8667H95.0334Z" fill="#542BC9"/>
<path d="M102.967 34.2233C102.967 36.2033 101.527 37.7266 99.4767 37.7266C97.4267 37.7266 95.9867 36.2033 95.9867 34.2233C95.9867 32.2433 97.44 30.72 99.4767 30.72C101.513 30.72 102.967 32.2433 102.967 34.2233ZM99.4734 36.41C100.747 36.41 101.537 35.4633 101.537 34.2266C101.537 32.99 100.743 32.0433 99.4734 32.0433C98.2034 32.0433 97.41 32.99 97.41 34.2266C97.41 35.4633 98.2134 36.41 99.4734 36.41Z" fill="#542BC9"/>
<path d="M105.293 30.8666V32.1133C105.64 31.1766 106.41 30.72 107.333 30.72C108.607 30.72 109.637 31.5833 109.637 33.36V37.5833H108.22V33.5266C108.22 32.58 107.763 31.9433 106.817 31.9433C105.81 31.9433 105.317 32.6633 105.317 33.66V37.5833H103.9V30.8633H105.293V30.8666Z" fill="#542BC9"/>
</svg>
