<svg width="86" height="95" viewBox="0 0 86 95" fill="none" xmlns="http://www.w3.org/2000/svg">
<g clip-path="url(#clip0_37_342)">
<path fill-rule="evenodd" clip-rule="evenodd" d="M57.1624 20.9513C59.5923 22.4182 61.7822 24.2679 63.6519 26.4327C65.4824 28.5508 66.9503 30.9713 67.9934 33.5917C68.586 35.0944 69.0525 36.6463 69.3878 38.2304C70.1657 41.788 70.2273 45.4711 69.5687 49.054C69.2116 50.9905 68.6688 52.8861 67.9482 54.7132L67.8577 54.9064C66.305 58.772 63.6444 62.5293 61.0742 66.2402C59.7552 68.1112 58.4512 69.9667 57.3508 71.768C57.0053 72.3295 56.5161 72.7828 55.9366 73.0787C55.3571 73.3745 54.7096 73.5014 54.0646 73.4457L33.2919 76.6154C32.4412 76.735 31.5771 76.5336 30.8603 76.0487C30.1435 75.5638 29.6229 74.8283 29.3951 73.9791C28.8737 72.4298 28.2335 70.9253 27.4807 69.4796C26.8521 68.2417 26.0939 67.0777 25.2195 66.0083C24.1417 64.7481 23.0488 63.4648 21.986 61.9881C20.7659 60.3121 19.713 58.5146 18.843 56.6227C17.9309 54.6416 17.2211 52.5689 16.725 50.4378C16.2345 48.2971 15.9941 46.1041 16.009 43.905C16.0092 41.6128 16.2903 39.3297 16.8456 37.1094C17.4482 34.7355 18.3131 32.44 19.4234 30.2674L19.5741 29.9968C21.0107 27.4956 22.8245 25.2437 24.9482 23.3248C27.0655 21.4283 29.475 19.9052 32.0784 18.8176L32.2894 18.7402C34.2294 17.9488 36.2531 17.3935 38.3192 17.0858C40.5093 16.7711 42.7276 16.7193 44.9294 16.9312C47.0807 17.1327 49.2038 17.5761 51.2607 18.2532C53.3095 18.9262 55.2788 19.8312 57.1322 20.9513H57.1624ZM54.1475 88.4131C53.0075 90.4277 51.3763 92.1035 49.4141 93.276C47.7575 94.2654 45.9 94.8475 43.9873 94.9768C42.0751 95.0956 40.1652 94.7096 38.4398 93.8558C37.1959 93.2269 36.0746 92.3702 35.131 91.3277L54.1927 88.4131H54.1475ZM55.9639 77.4736V78.7492V79.1976C56.0243 80.034 56.0243 80.8738 55.9639 81.7102L55.5946 83.558L32.5005 87.0834L32.0935 86.1324L31.1965 82.3442V81.2464L55.9112 77.4736H55.9639ZM42.4647 2.91465C42.4786 2.12996 42.7948 1.38284 43.3443 0.836659C43.8937 0.290473 44.6316 -0.0103338 45.3967 1.42715e-05H45.6002C46.3291 0.0663668 47.0065 0.413472 47.496 0.971467C47.9854 1.52946 48.2507 2.25692 48.2383 3.00742C48.2422 3.05888 48.2422 3.11058 48.2383 3.16204L48.08 9.50929C48.084 9.57623 48.084 9.64336 48.08 9.7103C48.0227 10.4608 47.6896 11.161 47.148 11.6691C46.6065 12.1772 45.8969 12.4553 45.1631 12.4471H44.9596C44.2279 12.3864 43.5461 12.0428 43.0521 11.4859C42.5581 10.9289 42.2889 10.2003 42.2989 9.44744C42.2947 9.39857 42.2947 9.34942 42.2989 9.30055L42.4496 2.92238L42.4647 2.91465ZM10.552 14.032C10.1303 13.6329 9.83376 13.1143 9.70002 12.542C9.56629 11.9697 9.60141 11.3695 9.80092 10.8177C10.0004 10.2659 10.3553 9.78738 10.8206 9.44292C11.2858 9.09845 11.8403 8.90358 12.4137 8.88307C12.793 8.86528 13.172 8.92442 13.5289 9.05708C13.8859 9.18974 14.2139 9.39333 14.494 9.65618L19.1369 14.0861C19.695 14.6275 20.0249 15.3709 20.0565 16.1581C20.0742 16.5471 20.0168 16.936 19.8874 17.3022C19.7581 17.6684 19.5594 18.0047 19.3028 18.2918C18.7792 18.8658 18.0561 19.2048 17.2903 19.235C16.9109 19.2541 16.5316 19.1956 16.1745 19.0629C15.8173 18.9301 15.4895 18.7259 15.21 18.4619L10.552 14.032ZM2.95448 46.7578C2.19175 46.7704 1.45471 46.4753 0.902087 45.9359C0.349463 45.3965 0.0254668 44.6561 -0.000125182 43.8741C-0.016255 43.481 0.0439499 43.0886 0.17699 42.7196C0.31003 42.3506 0.513252 42.0124 0.774842 41.7246C1.03643 41.4369 1.35117 41.2053 1.70077 41.0435C2.05037 40.8816 2.42785 40.7926 2.81127 40.7817L9.15009 40.5652C9.53271 40.5487 9.91472 40.6102 10.274 40.7461C10.6333 40.8821 10.9627 41.0899 11.2431 41.3574C11.5235 41.6249 11.7494 41.9468 11.9076 42.3045C12.0659 42.6622 12.1534 43.0486 12.165 43.4412V43.4876V43.5958C12.1517 44.3592 11.8522 45.0881 11.3286 45.6309C10.805 46.1737 10.0977 46.4887 9.3536 46.5104H9.24054L2.98462 46.7192L2.95448 46.7578ZM82.8493 37.5423H82.9096C83.6356 37.4977 84.3514 37.7351 84.9145 38.2072C85.2111 38.4525 85.4571 38.7558 85.6383 39.0996C85.8195 39.4434 85.9321 39.8207 85.9697 40.2096C85.9741 40.2429 85.9741 40.2767 85.9697 40.3101C86.0165 41.0755 85.7726 41.8297 85.2893 42.4148C84.806 43 84.1207 43.3705 83.3769 43.4489L77.0682 44.137C76.6904 44.1757 76.3089 44.1376 75.9454 44.0248C75.582 43.9121 75.2438 43.7269 74.9503 43.4798C74.5066 43.1109 74.1792 42.6155 74.0095 42.056C73.8397 41.4966 73.8351 40.8982 73.9963 40.3361C74.1575 39.774 74.4772 39.2734 74.9152 38.8973C75.3532 38.5212 75.8899 38.2865 76.4577 38.2227C78.5606 37.983 80.6786 37.7356 82.789 37.5269L82.8493 37.5423ZM70.345 11.6663C70.5537 11.3401 70.8231 11.0594 71.1379 10.8404C71.4527 10.6213 71.8065 10.4683 72.1791 10.39C72.5518 10.3117 72.9358 10.3097 73.3092 10.3841C73.6825 10.4585 74.0379 10.6078 74.3548 10.8236C74.6733 11.0365 74.9464 11.3134 75.1576 11.6377C75.3687 11.9619 75.5136 12.3267 75.5834 12.71C75.7312 13.4823 75.5739 14.2831 75.1462 14.9365L71.6188 20.3483C71.4127 20.6801 71.1436 20.966 70.8277 21.1891C70.5118 21.4122 70.1554 21.568 69.7797 21.6472C69.0278 21.7976 68.2484 21.6393 67.609 21.2065C66.9756 20.7678 66.5325 20.0944 66.3729 19.3278C66.2251 18.5555 66.3823 17.7547 66.81 17.1013L70.345 11.6895V11.6663ZM28.8148 62.5216C26.6198 60.1592 24.7829 57.4724 23.3653 54.5508C21.8247 51.2818 21.0234 47.6983 21.0213 44.0674C21.0981 40.1647 22.0826 36.3372 23.893 32.9037C23.9085 32.8795 23.9211 32.8536 23.9306 32.8264C26.226 28.7438 29.7787 25.5593 34.0305 23.7732C37.3587 22.401 40.9599 21.8707 44.5299 22.227C48.0686 22.5531 51.4939 23.675 54.562 25.5127C58.4914 27.8376 61.5663 31.4235 63.3128 35.7178C64.4229 38.4423 64.9945 41.3658 64.9945 44.3187C64.9945 47.2715 64.4229 50.195 63.3128 52.9195C61.2852 57.9834 56.6423 63.3952 53.5972 68.3431C53.4306 68.3081 53.2589 68.3081 53.0922 68.3431L33.4351 71.3196C32.4409 68.1181 30.8741 65.1346 28.8148 62.5216Z" fill="#322262"/>
</g>
<defs>
<clipPath id="clip0_37_342">
<rect width="86" height="95" fill="white"/>
</clipPath>
</defs>
</svg>
