<svg width="40" height="40" viewBox="0 0 40 40" fill="none" xmlns="http://www.w3.org/2000/svg">
<g clip-path="url(#clip0_62_13)">
<path fill-rule="evenodd" clip-rule="evenodd" d="M20 0C14.4759 0 9.47591 2.23958 5.85938 5.85938C2.23958 9.47917 0 14.4792 0 20C0 25.5208 2.23958 30.5241 5.85938 34.1406C9.47917 37.7604 14.4792 40 20 40C25.5241 40 30.5241 37.7604 34.1406 34.1406C37.7604 30.5241 40 25.5241 40 20C40 14.4759 37.7604 9.47591 34.1406 5.85938C30.5241 2.23958 25.5241 0 20 0ZM24.3424 18.291C23.6914 19.4629 22.9427 20.5892 21.9694 21.6146C20.9961 22.6465 19.7819 23.5872 18.2096 24.3848C18.0957 24.4434 17.9818 24.4434 17.8841 24.401C17.7344 24.3424 17.5846 24.222 17.4316 24.0723C17.3177 23.9583 17.1712 23.7695 17.0182 23.5677C16.416 22.7734 15.6673 21.7871 14.6126 22.2786C14.5898 22.2884 14.5703 22.3014 14.5475 22.3145L11.0286 24.3392C11.0189 24.3457 11.0059 24.3555 10.9928 24.362C10.5273 24.681 10.3353 25.1725 10.332 25.7292C10.332 26.2988 10.5404 26.9369 10.8464 27.4772C11.2533 28.1901 11.849 28.6589 12.5391 28.9746C13.1934 29.2741 13.9258 29.4401 14.6257 29.541C15.7259 29.7038 16.7578 29.5996 17.8158 29.2741C18.8477 28.9551 19.8893 28.4277 21.0221 27.7246L21.1035 27.6725C21.6243 27.347 22.1875 26.9987 22.7409 26.5885C24.7624 25.0651 26.8229 22.8613 28.1608 20.4362C29.2871 18.3984 29.8991 16.2012 29.5671 14.1081C29.3815 12.959 28.8867 11.9141 28.0306 11.2272C27.2819 10.625 26.2728 10.293 24.9674 10.4102C24.8177 10.4199 24.6842 10.5078 24.6126 10.638L22.3535 14.4531C22.0247 14.8828 21.9824 15.306 22.1615 15.7292C22.3112 16.0775 22.6139 16.3965 23.0273 16.6992C23.1478 16.8034 23.2943 16.9076 23.4473 17.0182C23.9518 17.3828 24.528 17.806 24.3294 18.3073L24.3424 18.291Z" fill="white"/>
</g>
<defs>
<clipPath id="clip0_62_13">
<rect width="40" height="40" fill="white" transform="matrix(-1 0 0 1 40 0)"/>
</clipPath>
</defs>
</svg>
