<svg width="38" height="38" viewBox="0 0 38 38" fill="none" xmlns="http://www.w3.org/2000/svg">
<path d="M19.0001 3.22998C10.2917 3.22998 3.16675 10.3391 3.16675 19.095C3.16675 27.0117 8.96175 33.5825 16.5301 34.77V23.6867H12.5084V19.095H16.5301V15.5958C16.5301 11.6216 18.8892 9.43665 22.5151 9.43665C24.2409 9.43665 26.0459 9.73748 26.0459 9.73748V13.6483H24.0509C22.0876 13.6483 21.4701 14.8675 21.4701 16.1183V19.095H25.8717L25.1593 23.6867H21.4701V34.77C25.2011 34.1807 28.5986 32.2771 31.0491 29.4025C33.4996 26.5281 34.842 22.8722 34.8334 19.095C34.8334 10.3391 27.7084 3.22998 19.0001 3.22998Z" fill="#322262"/>
</svg>
