<svg width="30" height="30" viewBox="0 0 30 30" fill="none" xmlns="http://www.w3.org/2000/svg">
<g clip-path="url(#clip0_62_24)">
<path d="M20.0002 15.0092C20.0051 12.2482 17.7704 10.0053 15.01 10.0005C12.249 9.99508 10.0057 12.2287 10.0003 14.9903C9.99494 17.7518 12.2296 19.9942 14.9911 19.9996C17.7515 20.0048 19.9949 17.7707 20.0002 15.0092ZM22.7019 15.0146C22.6936 19.2686 19.2386 22.7095 14.9857 22.7012C10.7322 22.693 7.28938 19.239 7.29764 14.9849C7.3059 10.7324 10.7613 7.28946 15.0153 7.29778C19.2683 7.30604 22.7101 10.7615 22.7019 15.0146ZM8.80906 6.98184C8.80713 7.97524 7.99947 8.77961 7.00602 8.77768C6.01221 8.77569 5.20783 7.96844 5.2093 6.97504C5.21123 5.98165 6.01895 5.1768 7.01281 5.17879C8.00668 5.18073 8.811 5.98844 8.80906 6.98184ZM21.0373 27.2201C22.4997 27.1565 23.2938 26.9134 23.8231 26.7098C24.5239 26.4387 25.024 26.1135 25.5504 25.5911C26.0757 25.0666 26.4018 24.568 26.6755 23.8686C26.881 23.3393 27.1284 22.5462 27.197 21.0838C27.2713 19.5028 27.2883 19.0285 27.2956 15.0233C27.3034 11.0191 27.2888 10.5448 27.2197 8.96231C27.1571 7.50092 26.9126 6.70575 26.7095 6.177C26.4383 5.47522 26.1141 4.97606 25.5907 4.44977C25.0663 3.92342 24.5677 3.59829 23.8678 3.32465C23.339 3.11805 22.5459 2.8726 21.084 2.80317C19.5021 2.72829 19.0282 2.71229 15.024 2.7045C11.019 2.6967 10.5447 2.71083 8.96217 2.78032C7.50084 2.84395 6.70572 3.086 6.17738 3.29061C5.47613 3.56178 4.97604 3.88504 4.45016 4.4094C3.92434 4.93381 3.5982 5.43145 3.32457 6.13282C3.11809 6.6601 2.87258 7.45422 2.80355 8.91567C2.72826 10.4976 2.71121 10.972 2.70395 14.9761C2.69621 18.9813 2.7108 19.4557 2.78024 21.0372C2.84393 22.4995 3.08644 23.2942 3.29053 23.8239C3.56176 24.5243 3.8859 25.0244 4.40984 25.5507C4.93373 26.0751 5.43236 26.4022 6.13268 26.6758C6.66055 26.8819 7.45461 27.1278 8.91553 27.1973C10.4974 27.2716 10.9713 27.2887 14.9769 27.2959C18.9811 27.3037 19.4549 27.2887 21.0373 27.2201ZM21.2123 0.103872C22.8083 0.179224 23.8984 0.43481 24.851 0.80811C25.8371 1.19254 26.673 1.7077 27.5045 2.54266C28.3371 3.37809 28.8484 4.21545 29.2299 5.20252C29.5992 6.15754 29.8495 7.24815 29.92 8.84518C29.9899 10.4451 30.006 10.9554 29.9982 15.0286C29.9904 19.1014 29.9725 19.6127 29.8962 21.2131C29.8199 22.8087 29.5652 23.8983 29.192 24.8513C28.8071 25.8374 28.2924 26.6729 27.4569 27.5049C26.622 28.337 25.7841 28.8478 24.7965 29.2298C23.8425 29.5986 22.7515 29.8499 21.1549 29.9199C19.555 29.9904 19.0443 30.0059 14.9721 29.9982C10.8979 29.9904 10.3871 29.9724 8.78721 29.8966C7.19117 29.8203 6.10209 29.5647 5.14854 29.1923C4.16246 28.8065 3.32656 28.2927 2.49494 27.4573C1.66344 26.6223 1.15215 25.7845 0.770645 24.7969C0.40127 23.8429 0.150019 22.7518 0.0805855 21.1563C0.0105667 19.5553 -0.00601578 19.044 0.00183678 14.9713C0.0096302 10.8981 0.0280285 10.3878 0.103848 8.78835C0.179668 7.19131 0.435312 6.10217 0.808084 5.14862C1.19346 4.16254 1.70762 3.32752 2.54258 2.49502C3.37754 1.66346 4.21543 1.15118 5.20297 0.770669C6.15746 0.401294 7.24807 0.149575 8.84457 0.0805518C10.4445 0.00959474 10.9553 -0.00593261 15.029 0.00180176C19.1016 0.00959473 19.6124 0.0270557 21.2123 0.103872Z" fill="#322262"/>
</g>
<defs>
<clipPath id="clip0_62_24">
<rect width="30" height="30" fill="white" transform="matrix(-1 0 0 1 30 0)"/>
</clipPath>
</defs>
</svg>
