<svg width="32" height="33" viewBox="0 0 32 33" fill="none" xmlns="http://www.w3.org/2000/svg">
<path d="M29.44 0.166504H2.74C2.39586 0.150048 2.0519 0.20303 1.72784 0.322447C1.40378 0.441864 1.10598 0.625348 0.85146 0.862386C0.59696 1.09944 0.39074 1.38542 0.24464 1.70392C0.0985403 2.02244 0.0154 2.36724 0 2.71859V30.0361C0.02016 30.7714 0.31532 31.471 0.824859 31.991C1.3344 32.5113 2.01968 32.8126 2.74 32.8332H29.44C30.1402 32.8014 30.8004 32.4906 31.279 31.9678C31.7576 31.4449 32.0164 30.7515 32 30.0361V2.71859C32.0058 2.37661 31.943 2.03706 31.8156 1.72072C31.6882 1.40441 31.4988 1.11798 31.259 0.879005C31.0194 0.640048 30.7344 0.453604 30.4216 0.331083C30.1088 0.208563 29.7748 0.15256 29.44 0.166504ZM10 27.4024H5.34V12.8453H10V27.4024ZM7.78 10.6403C7.45482 10.6518 7.1308 10.5946 6.82832 10.4722C6.52582 10.3499 6.25138 10.165 6.02226 9.92912C5.79312 9.69329 5.61422 9.41164 5.49682 9.10186C5.3794 8.79208 5.32602 8.46086 5.34 8.129C5.32562 7.79356 5.38008 7.45877 5.4999 7.14608C5.61972 6.83338 5.80224 6.54971 6.03574 6.31327C6.26926 6.0768 6.5486 5.89279 6.85586 5.77302C7.16314 5.65324 7.49154 5.60036 7.82 5.61775C8.14518 5.6062 8.4692 5.66339 8.77168 5.78576C9.07418 5.90814 9.34862 6.09305 9.57774 6.32889C9.80688 6.56472 9.98578 6.84637 10.1032 7.15615C10.2206 7.46593 10.274 7.79715 10.26 8.129C10.2744 8.46445 10.2199 8.79924 10.1001 9.11193C9.98028 9.42463 9.79776 9.7083 9.56426 9.94474C9.33074 10.1812 9.0514 10.3652 8.74414 10.485C8.43686 10.6048 8.10846 10.6576 7.78 10.6403ZM26.68 27.4024H22V19.4399C22 17.5411 21.34 16.2345 19.68 16.2345C19.1644 16.239 18.6626 16.4062 18.2438 16.7133C17.8248 17.0203 17.5092 17.4521 17.34 17.9495C17.21 18.3223 17.1556 18.7182 17.18 19.1132V27.4024H12.58V12.8453H17.18V14.887C17.589 14.1199 18.1976 13.4833 18.9388 13.0472C19.68 12.6113 20.5248 12.393 21.38 12.4165C24.4 12.4165 26.68 14.4582 26.68 18.807V27.4024Z" fill="#322262"/>
</svg>
