<svg width="93" height="90" viewBox="0 0 93 90" fill="none" xmlns="http://www.w3.org/2000/svg">
<path d="M45.3549 0H45.3617V0.00150184C49.8286 0.00225276 54.1456 0.643538 58.2204 1.83825C58.872 2.02899 59.5297 2.23924 60.1919 2.46602C63.5432 3.61643 66.7113 5.14305 69.6456 6.99332C69.8522 7.12323 69.9135 7.39506 69.7833 7.60006C69.7697 7.62034 69.7538 7.64061 69.7379 7.65863L66.4926 11.7872C66.3488 11.9704 66.0869 12.0095 65.8962 11.8811L65.8886 11.8765C65.0637 11.3712 64.2115 10.8928 63.3366 10.443C62.4549 9.99099 61.5588 9.57198 60.6498 9.18976L60.6483 9.18901C55.9514 7.21183 50.7829 6.11849 45.3541 6.11849H45.3496V6.11699C39.9413 6.11699 34.7857 7.20658 30.0979 9.17399C29.3319 9.49538 28.5804 9.8393 27.8463 10.2035C24.0568 12.0838 20.6147 14.5596 17.6441 17.5069L17.6411 17.51L17.6207 17.5287C16.6353 18.5079 15.7021 19.5389 14.8264 20.6173C13.9455 21.7023 13.1198 22.837 12.3576 24.0144C8.43948 30.0668 6.16594 37.2697 6.16594 44.9996V45.0041H6.16443C6.16443 50.3702 7.2626 55.4855 9.24551 60.1367C9.56943 60.8974 9.91606 61.6423 10.2831 62.3707C12.1782 66.1298 14.6735 69.5457 17.6449 72.4931L17.6479 72.4961L17.6646 72.5133C18.6515 73.4918 19.6921 74.4184 20.7797 75.288C21.8733 76.1628 23.0169 76.9813 24.2044 77.7375C30.3045 81.625 37.5648 83.8808 45.3549 83.8808H45.3594V83.883C50.7693 83.8823 55.9234 82.7934 60.6112 80.826C61.3779 80.5046 62.1287 80.1607 62.8628 79.7965C66.6523 77.9162 70.0951 75.4404 73.0649 72.4931L73.0687 72.4893L73.0914 72.4675C74.0753 71.4891 75.0077 70.4596 75.8826 69.3827C76.7644 68.2977 77.5893 67.1623 78.3514 65.9848C82.2703 59.9324 84.5431 52.7296 84.5431 45.0004V44.9929H84.5454C84.5446 41.7496 84.1427 38.5943 83.3852 35.5786C83.2595 35.0762 83.1271 34.5889 82.9893 34.1173C82.2613 31.634 81.2887 29.2521 80.1028 27.0001C79.9998 26.8056 80.0589 26.5698 80.2329 26.4436L84.4266 23.1539C84.6173 23.0037 84.895 23.036 85.0457 23.226C85.0593 23.2425 85.0706 23.2605 85.0805 23.2785H85.082L85.085 23.2845L85.0896 23.2935C85.5898 24.1931 86.0628 25.1145 86.5026 26.0539C86.943 26.9941 87.351 27.95 87.7249 28.9179C89.6525 33.913 90.7091 39.3362 90.7091 45.0011V45.0056H90.7075C90.7068 51.2165 89.4368 57.136 87.1421 62.5178C86.7705 63.3912 86.3694 64.254 85.9402 65.1032C83.7431 69.4623 80.8566 73.4152 77.4251 76.8206L77.422 76.8236L77.4054 76.8386C76.2611 77.9733 75.0554 79.0463 73.7945 80.0548C72.5283 81.0678 71.2054 82.014 69.8333 82.8888C62.772 87.3883 54.3688 90.0007 45.3541 90.0007H45.3496V89.9992C39.0898 89.9985 33.1237 88.7384 27.6994 86.4617C26.8192 86.093 25.9496 85.6942 25.0929 85.2685C20.7002 83.0893 16.7155 80.2245 13.2832 76.8206L13.2802 76.8168L13.259 76.7951C12.1177 75.6612 11.0377 74.4672 10.0235 73.2184C9.00332 71.9622 8.04895 70.6496 7.16799 69.2881C2.63303 62.2805 0 53.9438 0 45.0004V44.9951H0.00151367C0.00227051 38.7843 1.27224 32.8655 3.56621 27.4829C3.93857 26.6096 4.3397 25.7475 4.76882 24.8967C6.96516 20.5384 9.85249 16.5856 13.2832 13.1801L13.2863 13.1771L13.3059 13.1599C14.4488 12.0267 15.6544 10.9537 16.913 9.94668C18.18 8.93444 19.5021 7.98753 20.875 7.11346C27.9386 2.6117 36.341 0 45.3549 0ZM70.4365 12.2392L83.1286 0.206503L83.974 8.32169L93 9.44132L79.4087 22.5081L72.7955 23.0713L46.4062 47.4236L43.9744 45.3458L68.9705 19.4391L70.4365 12.2392ZM45.3549 30.7562H45.3663V30.7577C46.22 30.7584 47.051 30.8313 47.851 30.9709C47.944 30.9875 48.0757 31.0122 48.2422 31.046H48.2445C48.9105 31.1812 49.5629 31.3637 50.1964 31.5889C50.4265 31.67 50.546 31.9209 50.4636 32.1491C50.4477 32.1942 50.4234 32.2347 50.3954 32.2708L50.3962 32.2715L46.8534 36.7801C46.7543 36.907 46.5969 36.9633 46.4463 36.9438V36.9453L46.4258 36.9423L46.2684 36.9242L46.2548 36.922L46.1186 36.9077L46.1072 36.9062C45.8711 36.8859 45.6206 36.8747 45.3549 36.8747H45.3504V36.8724C44.2219 36.8732 43.1442 37.1015 42.1648 37.513C42.0029 37.5813 41.8455 37.6534 41.6948 37.7277C40.9062 38.1189 40.1872 38.6363 39.5644 39.2543L39.5613 39.2573L39.5409 39.2754C39.3411 39.4751 39.1519 39.6861 38.9733 39.9061C38.7894 40.1322 38.6168 40.3702 38.4571 40.6165C37.6397 41.8796 37.1659 43.3851 37.1659 44.9996V45.0041H37.1637C37.1644 46.1253 37.3945 47.1938 37.8093 48.1648C37.8781 48.3262 37.9508 48.4824 38.0257 48.6311C38.42 49.4143 38.9422 50.1269 39.5644 50.7442L39.5674 50.7479L39.5855 50.7667C39.7869 50.9649 39.9995 51.1542 40.2213 51.3306C40.4491 51.5131 40.689 51.6851 40.9373 51.8435C42.211 52.6538 43.7285 53.1246 45.3549 53.1246H45.3594V53.1261C46.4894 53.1261 47.5671 52.8978 48.545 52.4863C48.7077 52.418 48.8644 52.3459 49.015 52.2715C49.8043 51.8796 50.5226 51.3622 51.1447 50.7442L51.1485 50.7404L51.1636 50.7261C51.2741 50.6158 51.3816 50.5039 51.4807 50.3935C51.5799 50.2831 51.6836 50.1592 51.7895 50.0255C52.3027 49.3797 52.7197 48.6559 53.0164 47.8771C53.0504 47.7863 53.1117 47.7127 53.1882 47.6639L58.9129 43.1719C59.1043 43.0217 59.3814 43.054 59.5327 43.244C59.5857 43.3108 59.6152 43.3881 59.6243 43.467H59.6266L59.6303 43.5008L59.6319 43.5241L59.65 43.7118V43.7171H59.6515L59.6682 43.9213V43.9251C59.6947 44.2855 59.7098 44.6437 59.7098 44.9996V45.0041H59.7075C59.7068 46.9693 59.3049 48.8421 58.5791 50.5452C58.4625 50.8193 58.3346 51.0926 58.1984 51.3637C57.5014 52.7446 56.5886 53.9964 55.5041 55.0717L55.501 55.0747L55.4768 55.095C55.1196 55.4479 54.7442 55.7836 54.3529 56.0967C53.9518 56.4166 53.5325 56.717 53.0996 56.9926C50.8639 58.4163 48.2059 59.2431 45.3541 59.2431H45.3496V59.2408C43.369 59.2401 41.4814 58.8413 39.7657 58.1212C39.4894 58.0056 39.2132 57.8787 38.9407 57.7435C37.5489 57.0519 36.2873 56.1463 35.2035 55.071L35.2004 55.068L35.1755 55.0409C34.8213 54.6872 34.4852 54.3155 34.1704 53.9281C33.8472 53.5301 33.5452 53.1148 33.2667 52.6845C31.8318 50.4671 30.9985 47.8291 30.9985 45.0004V44.9951H31C31.0008 43.0307 31.4034 41.1579 32.1284 39.4556C32.2458 39.1815 32.3729 38.9082 32.5091 38.6371C33.2047 37.2584 34.1174 36.0074 35.2027 34.9305L35.2035 34.9298L35.2027 34.929L35.2057 34.926C35.5652 34.5701 35.949 34.2284 36.3546 33.904C36.7557 33.5834 37.1743 33.2838 37.6079 33.0074C39.8451 31.5829 42.5047 30.7562 45.3549 30.7562ZM46.1072 36.9062C45.8749 36.8777 45.7046 36.6734 45.7189 36.4421L46.1072 36.9062ZM45.3549 15.2512H45.3625V15.2527C48.0447 15.2534 50.6429 15.6034 53.111 16.2574C53.5128 16.364 53.9125 16.4789 54.3083 16.6021C56.3404 17.2314 58.2824 18.0724 60.1064 19.0974C60.3183 19.2168 60.3932 19.4849 60.2729 19.6951C60.2615 19.7132 60.2502 19.7319 60.2366 19.7484L60.2343 19.7507L56.9466 23.9348C56.8089 24.109 56.5644 24.1526 56.3767 24.0452L56.3661 24.0399C55.9211 23.8094 55.4572 23.5864 54.975 23.3761C54.4899 23.1636 54.0025 22.9684 53.5136 22.7912C50.9714 21.8705 48.2226 21.3682 45.3541 21.3682H45.3496V21.3667C42.0627 21.3667 38.9301 22.0297 36.0806 23.2252C35.6311 23.4144 35.174 23.6239 34.7123 23.8522L34.6775 23.868C32.3896 25.0086 30.3098 26.5067 28.5123 28.2894L28.5093 28.2924L28.4918 28.3097C27.8962 28.9022 27.3309 29.5284 26.8003 30.1817C26.2652 30.841 25.7635 31.5311 25.3003 32.2468C22.92 35.9248 21.5388 40.3026 21.5388 44.9996V45.0041H21.5373C21.5373 48.2654 22.2056 51.3742 23.4104 54.2006C23.6072 54.6632 23.8184 55.1168 24.0409 55.5583C25.192 57.8419 26.7087 59.9174 28.5145 61.7091L28.5176 61.7121C29.1246 62.3151 29.7611 62.8828 30.421 63.4099C31.0855 63.9408 31.7811 64.4387 32.5023 64.8983C36.2093 67.2607 40.6224 68.6303 45.3557 68.6303H45.3602V68.6318C48.6471 68.6318 51.7804 67.9695 54.6299 66.774C55.0961 66.5781 55.5533 66.3693 55.9983 66.1478C58.2998 65.0056 60.3917 63.5015 62.1975 61.7091L62.2006 61.7061C62.8083 61.1031 63.3805 60.4723 63.9118 59.8175C64.4468 59.1575 64.9486 58.4681 65.4118 57.7517C67.7936 54.073 69.1748 49.6951 69.1748 44.9996H69.1733V44.9884H69.1748C69.1748 43.5308 69.0401 42.1011 68.7843 40.7149C68.7457 40.5076 68.7003 40.2808 68.648 40.0398C68.4006 38.8871 68.0683 37.769 67.6619 36.6937C67.5892 36.5007 67.6619 36.289 67.8261 36.1778L72.1121 32.8152C72.3036 32.665 72.5806 32.6973 72.7312 32.8873C72.7539 32.9166 72.772 32.9459 72.7864 32.9774L72.7902 32.9849L72.7932 32.9909L72.794 32.9902C73.0173 33.4925 73.2322 34.0152 73.4373 34.5566C73.6394 35.0912 73.8256 35.6281 73.9928 36.1658C74.867 38.9585 75.3385 41.9254 75.3385 44.9989V45.0034H75.3362C75.3362 49.1087 74.4969 53.0217 72.9802 56.5788C72.735 57.1548 72.4686 57.7255 72.1847 58.2887C70.7324 61.1707 68.8244 63.7839 66.5562 66.0336L66.5524 66.0366L66.5357 66.0524C65.7804 66.7996 64.9857 67.5084 64.1547 68.173C63.3176 68.8428 62.4427 69.4684 61.5361 70.0458C56.8664 73.021 51.312 74.7473 45.3541 74.7473H45.3496C41.212 74.7466 37.2681 73.9138 33.6822 72.409C33.1017 72.1649 32.5265 71.9013 31.9589 71.6197C29.0549 70.178 26.4204 68.2857 24.1521 66.0351L24.1491 66.0321L24.1279 66.0096C23.3764 65.2625 22.6642 64.4755 21.9967 63.6525C21.3216 62.822 20.6911 61.9539 20.1084 61.0543C17.1098 56.4219 15.3698 50.9101 15.3698 44.9996V44.9951H15.3713C15.3721 40.8898 16.2122 36.9768 17.7289 33.4189C17.9741 32.843 18.2397 32.2723 18.5236 31.7091C19.9752 28.8293 21.8832 26.2169 24.1514 23.9656L24.1521 23.9649L24.1514 23.9641L24.1544 23.9611L24.1741 23.9431C24.9279 23.1959 25.7226 22.4886 26.5521 21.8255C27.3899 21.1557 28.264 20.5301 29.1707 19.9527C33.8419 16.9775 39.3979 15.2512 45.3549 15.2512Z" fill="white"/>
</svg>
